<mxfile host="app.diagrams.net" modified="2023-10-26T15:21:43.685Z" agent="Mozilla/5.0 (Windows NT 10.0; Win64; x64) AppleWebKit/537.36 (KHTML, like Gecko) Chrome/118.0.0.0 Safari/537.36" version="22.0.8" etag="Ae0TAo31vytC-IVG4DF1" type="github">
  <diagram name="PÃ¡gina-1" id="okGasGEt19eLzVrUjZ33">
    <mxGraphModel>
      <root>
        <mxCell id="0" />
        <mxCell id="1" parent="0" />
      </root>
    </mxGraphModel>
  </diagram>
</mxfile>
